<?xml version="1.0" encoding="UTF-8"?>
<svg width="261" height="386" data-name="Group 241" version="1.1" viewBox="0 0 261 386" xmlns="http://www.w3.org/2000/svg"><defs><linearGradient id="linear-gradient" x1="181" x2="24" y1="346" y2="343" gradientTransform="scale(.99 1)" gradientUnits="userSpaceOnUse"><stop stop-color="#dcdcdc" stop-opacity="0" offset="0"/><stop stop-color="#5a5a5a" stop-opacity=".5" offset="1"/></linearGradient></defs><g transform="translate(-156 -428)" data-name="Group 369"><rect transform="translate(364 599)" width="7.9" height="28" fill="#ffd34d" data-name="Rectangle 1250"/><g transform="translate(319 559)" data-name="Group 217"><path transform="translate(-319 -566)" d="m353 596h-18a15 15 0 1 1 0-30h11v7.8h-11a7.3 7.3 0 1 0 0 15h18z" fill="#f2ba49" data-name="Path 492"/></g><g transform="translate(383 559)" data-name="Group 218"><path transform="translate(-426 -566)" d="m426 596h18a15 15 0 1 0 0-30h-11v7.8h11a7.3 7.3 0 1 1 0 15h-18z" fill="#f2ba49" data-name="Path 493"/></g><path transform="translate(-27 -26)" d="m387 615v8.2a5.4 5.4 0 0 0 5.4 5.4h4.4a5.4 5.4 0 0 0 5.4-5.4v-8.2z" fill="#f2ba49" data-name="Path 494"/><path transform="translate(-13 -5.1)" d="m351 561v11a29 29 0 0 0 29 29 29 29 0 0 0 29-29v-11z" fill="#ffd34d" data-name="Path 495"/><rect transform="translate(334 549)" width="68" height="7.7" fill="#f2ba49" data-name="Rectangle 1251"/><path transform="translate(-21 -52)" d="m398 679h-17a7.9 7.9 0 0 0-7.9 7.9h33a7.9 7.9 0 0 0-7.9-7.9z" fill="#f2ba49" data-name="Path 496"/><rect transform="translate(345 635)" width="45" height="17" fill="#ffd34d" data-name="Rectangle 1252"/><rect transform="translate(360 640)" width="17" height="7.5" fill="#f2ba49" data-name="Rectangle 1253"/><path transform="translate(-24 -8.1)" d="m392 569 3.8 7.7 8.4 1.2-6.1 6 1.4 8.4-7.6-4-7.6 4 1.4-8.4-6.1-6 8.4-1.2z" fill="#f2ba49" data-name="Path 497"/></g><path d="m112 337 0.11 15s-1.9 9.5-3.4 20-1.5 9.3 0 12c3 5 14-0.54 15-5.5s-3.4-24-3.4-24l1-20z" fill="#949494" data-name="Path 417"/><path d="m97 336 2.3 13s4.4 26 1.9 31-16 5.8-16 0c-0.44-9.5 4.5-28 4.5-28l-4.5-16z" fill="#949494" data-name="Path 418"/><g transform="translate(52 16)" data-name="Group 201"><path transform="translate(-128 -171)" d="m180 328 1.1 16-42 20a18 18 0 0 0-8.8 21l29 109 14-4.6-13-100a11 11 0 0 1 9.5-13l15-2.4 16-16-19 17a18 18 0 0 0-5.9 16l12 101 13 3.3 5.9-99a15 15 0 0 1 11-14l26-8.3a14 14 0 0 0 6.8-12l-1.1-35z" fill="#313131" data-name="Path 419"/><path transform="translate(-129 -227)" d="m253 421-7-136s-29-1.7-37-1.7c-4.7 0-13 2.2-19 4.2-5.9 1.9-11 1.7-14 7.2l-47 91 29 2.8 9.7-11-4.9-7.5 18-42-3.5 76z" fill="#a058ff" data-name="Path 420"/><path transform="translate(-118 -211)" d="m169 296-31 57 9.8 11a17 17 0 0 0 7.7-0.43l1.7-2-4.9-7.5 18-42z" fill="#813fd8" data-name="Path 421"/><path transform="translate(-89 -227)" d="m178 307a17 17 0 0 0 16-23c-8.9-0.48-20-1-25-1a39 39 0 0 0-7.9 1.1 17 17 0 0 0 16 23z" fill="#fff" data-name="Path 422"/><path transform="translate(-86 -213)" d="m206 295 5.4 69-49 33z" fill="#813fd8" data-name="Path 423"/><path transform="translate(-86 -239)" d="m163 282c0.81 1.6 6.5 24 6.5 24a7.2 7.2 0 0 0 6.9 3.2c4.9-0.4 6.9-7.3 6.9-7.3l-8.5-28z" fill="#f6a091" data-name="Path 424"/><path transform="translate(-100 -258)" d="m207 287c0 15-16 32-32 32s-24-17-24-32a28 28 0 0 1 56 0z" fill="#f6a091" data-name="Path 425"/><ellipse transform="translate(47)" cx="31" cy="31" rx="31" ry="31" fill="#fbad8b" data-name="Ellipse 48"/><g transform="translate(47 40)" data-name="Group 199"><path transform="translate(-150 -276)" d="m159 290c-3.7 0-7.8-3.1-9.1-7a5.9 5.9 0 0 1 0.41-5.4 4.8 4.8 0 0 1 4-1.9c3.7 0 7.8 3.1 9.1 7a5.9 5.9 0 0 1-0.41 5.4 4.8 4.8 0 0 1-4 1.9zm-4.7-13a3.7 3.7 0 0 0-3.1 1.5 4.8 4.8 0 0 0-0.28 4.4c1.2 3.4 4.9 6.2 8.1 6.2a3.7 3.7 0 0 0 3.1-1.5 4.8 4.8 0 0 0 0.27-4.4c-1.2-3.4-4.9-6.2-8.1-6.2z" fill="#404040" data-name="Path 426"/></g><g transform="translate(65 40)" data-name="Group 200"><path transform="translate(-158 -276)" d="m167 290c-3.7 0-7.8-3.1-9.1-7a5.9 5.9 0 0 1 0.41-5.4 4.7 4.7 0 0 1 4-1.9c3.7 0 7.8 3.1 9.1 7a5.9 5.9 0 0 1-0.41 5.4 4.8 4.8 0 0 1-4 1.9zm-4.7-13a3.7 3.7 0 0 0-3.1 1.5 4.8 4.8 0 0 0-0.27 4.4c1.2 3.4 4.9 6.2 8.1 6.2a3.7 3.7 0 0 0 3.1-1.5 4.8 4.8 0 0 0 0.27-4.4c-1.2-3.4-4.9-6.2-8.1-6.2z" fill="#404040" data-name="Path 427"/></g><path transform="translate(-97 -232)" d="m157 281c0.5 0.86 0.42 1.8-0.17 2.2s-1.5-0.079-2-0.94-0.42-1.8 0.17-2.2 1.5 0.081 2 0.94z" fill="#404040" data-name="Path 428"/><path transform="translate(-89 -231)" d="m163 281c0.5 0.86 0.42 1.8-0.17 2.2s-1.5-0.079-2-0.94-0.42-1.8 0.17-2.2 1.5 0.078 2 0.94z" fill="#404040" data-name="Path 429"/></g><path d="m137 197c-1.2-0.41-11-5.4-19-5.4s-16 7.7-16 7.7-1.2 4 3.6 3.2-0.67 3.1-0.67 3.1 0.26 0.18 5.9 0.99 28-0.38 28-0.38z" fill="#fbad8b" data-name="Path 430"/><path d="m168 74 3.9 89-37 33 1.7 9.3 52-28a14 14 0 0 0 7-14l-9.4-68a25 25 0 0 0-14-20z" fill="#a058ff" data-name="Path 431"/><g transform="translate(0 136)" data-name="Group 202"><path transform="translate(-80 -272)" d="m220 350h-94v-6.9h94a3.4 3.4 0 0 1 3.4 3.4 3.4 3.4 0 0 1-3.4 3.4z" fill="#cfcfcf" data-name="Path 432"/><path transform="translate(-106 -312)" d="m221 389h-90a8.8 8.8 0 0 1-8.5-6.5l-16-60a8.8 8.8 0 0 1 8.5-11h79a8.8 8.8 0 0 1 8.5 6.5z" fill="#fff" data-name="Path 433"/><path transform="translate(-106 -312)" d="m114 312a8.8 8.8 0 0 0-8.5 11l16 60a8.8 8.8 0 0 0 3 4.6l55-76z" fill="url(#linear-gradient)" opacity=".64" data-name="Path 434"/></g><path d="m131 16a31 31 0 0 0-31 28 25 25 0 0 0 37-9.4 44 44 0 0 0 0.095 10 15 15 0 0 0 4.7 9c0.2-2.4 0.43-5 1.7-7s3.9-3.5 6.2-2.7a5.1 5.1 0 0 1 2.9 4.1 10 10 0 0 1-0.84 5.1 22 22 0 0 1-4.3 6.9 46 46 0 0 0 11 0.66 31 31 0 0 0-28-45z" fill="#2e2e2e" data-name="Path 436"/><g fill="#fbad8b"><path d="m158 52a9.5 9.5 0 1 1-9.5-9.5 9.5 9.5 0 0 1 9.5 9.5z" data-name="Path 437"/><path d="m97 336 1.7 9.9-9.9 3.1-2.8-9.8z" data-name="Path 438"/><path d="m113 349 8.2 1.6 0.52-10-8.8-2.2z" data-name="Path 439"/></g><path d="m138 34c-1.8 3.8-3.6 7.7-6.7 11-5 4.5-12 5.4-19 5.8-5 0.3-10 0.46-15-0.86s-9.4-4.3-11-8.9-0.99-11 3.2-13a11 11 0 0 1 10-0.59 19 19 0 0 1 7.9 6.7 69 69 0 0 1 13-7.2c3.8-1.6 8.2-2.8 12-0.94 2.7 1.3 4.5 6.3 6 8.8z" fill="#2e2e2e" data-name="Path 440"/><path d="m60 180a5.4 5.4 0 0 1-5.5 7.1 9.9 9.9 0 0 1-9.1-7.1 5.4 5.4 0 0 1 5.5-7.1 9.9 9.9 0 0 1 9.1 7.1z" fill="#bebebe" data-name="Path 498"/></svg>
