<?xml version="1.0" encoding="UTF-8"?>
<svg width="270" height="277" version="1.1" viewBox="0 0 270 277" xmlns="http://www.w3.org/2000/svg"><g transform="translate(0 24)" data-name="Group 210"><g transform="translate(-1532 -1494)" data-name="Group 368"><path transform="translate(-197 -85)" d="m1889 1765a5.4 5.4 0 0 1 0.81-1.1 5.5 5.5 0 0 1 7.8 0c2.4 2.6 3.4 6.3 0.69 9.2-1.7 1.8-4.1 2-6.4 2a5.5 5.5 0 0 1-2.9-10z" fill="#fff" data-name="Path 518"/><g transform="translate(1689 1644)" data-name="Group 249"><g transform="translate(26)" data-name="Group 246"><path transform="translate(-1716 -1686)" d="m1718 1691h64c3.7 0 6.6 3.7 6.6 8.3s-3 8.3-6.6 8.3h-64z" fill="#f2f2f2" data-name="Path 522"/><path transform="translate(-1712 -1681)" d="m1714 1702h67c3.7-0.047 6.7-3.7 6.7-8.3s-3-8.2-6.7-8.3h-67a2.2 2.2 0 0 1 0-4.2h68c5.2 0.56 9.3 6 9.3 12s-4.1 12-9.3 12h-68a2.2 2.2 0 0 1 0-4.2z" fill="#a058ff" data-name="Path 523"/><path transform="translate(-1716 -1686)" d="m1783 1705a6.2 6.2 0 0 0 6.4-6c0-4.6-3-8.3-6.7-8.3h1.7c3.7 0 6.7 3.7 6.7 8.3s-3 8.3-6.7 8.3h-66v-2.3z" fill="#d2d2d2" data-name="Path 524"/></g><g transform="translate(6 25)" data-name="Group 247"><path transform="translate(-1690 -1741)" d="m1692 1744h85c4.1 0 7.5 4.1 7.5 9.1s-3.4 9.1-7.5 9.1h-85z" fill="#f2f2f2" data-name="Path 525"/><path transform="translate(-1688 -1738)" d="m1689 1758h87c4.1-0.049 7.5-4.1 7.5-9s-3.4-9-7.5-9h-87a1.4 1.4 0 0 1 0-2.7h88a9.3 9.3 0 0 1 6.3 3.8 13 13 0 0 1 0 16 9.3 9.3 0 0 1-6.3 3.8h-88a1.4 1.4 0 0 1 0-2.7z" fill="#0089c3" data-name="Path 526"/><path transform="translate(-1690 -1741)" d="m1777 1759a6.9 6.9 0 0 0 7.2-6.6c0-5-3.4-9.1-7.5-9.1h2c4.1 0 7.5 4.1 7.5 9.1s-3.4 9.1-7.5 9.1h-87v-2.5z" fill="#d1d1d1" data-name="Path 527"/></g><g transform="translate(14 48)" data-name="Group 248"><path transform="translate(-1673 -1791)" d="m1736 1793a1.1 1.1 0 0 0 0-2.2h-55a8.6 8.6 0 0 0-5.7 3.1 10 10 0 0 0 0 13 8.6 8.6 0 0 0 5.7 3.1h55a1.1 1.1 0 0 0 0-2.2h-0.18v-15z" fill="#53af65" data-name="Path 528"/><path transform="translate(-1769 -1794)" d="m1867 1796h-41c-3.8 0-6.8 3.4-6.8 7.5s3.1 7.5 6.8 7.5h41z" fill="#f2f2f2" data-name="Path 529"/><path transform="translate(-1763 -1791)" d="m1861 1808h-43c-3.7-0.04-6.8-3.4-6.8-7.5s3-7.5 6.8-7.5h43a1.1 1.1 0 0 0 0-2.2h-44a8.6 8.6 0 0 0-5.7 3.1 10 10 0 0 0 0 13 8.6 8.6 0 0 0 5.7 3.1h44a1.1 1.1 0 0 0 0-2.2z" fill="#40a554" data-name="Path 530"/><path transform="translate(-1766 -1794)" d="m1823 1809c-5 0-6.5-3.9-6.5-5.4 0-4.2 3.1-7.5 6.8-7.5h-1.8c-3.8 0-6.8 3.4-6.8 7.5s3.1 7.5 6.8 7.5h43v-2.1z" fill="#d1d1d1" data-name="Path 531"/></g></g></g><path transform="rotate(-.44 1e4 -8837)" d="m4.1 0h69a4.1 4.1 0 0 1 4.1 4.1v83h-77v-83a4.1 4.1 0 0 1 4.1-4.1z" fill="#53af65" data-name="Rectangle 1246"/><path transform="translate(-156 -130)" d="m249 382c4.7-4 6.1-13 8.4-21 0.38-1.4 3.1-5.8 3.2-7.3 0.043-2-6.3-5.5-9-5.4-2.7 0.13-1.9 7.4-2.5 9.3-1.7 5.7-11 10-11 16-0.13 2.7 6.4 12 11 8.5z" fill="#949494" data-name="Path 476"/><path transform="translate(-144 -130)" d="m262 379c-5.4-2.9-8.9-11-11-19-0.38-1.4-3.1-5.8-3.2-7.3-0.043-2 6.3-5.5 9-5.4 2.7 0.13 1.9 7.4 2.5 9.3 1.7 5.7 13 9.1 13 15 0.13 2.7-4.9 10-10 7.4z" fill="#949494" data-name="Path 481"/><path transform="translate(-132 -228)" d="m275 279a8.5 8.5 0 1 1-8.5-8.5 8.5 8.5 0 0 1 8.5 8.5z" fill="#fbad8b" data-name="Path 469"/><path transform="translate(-127 -226)" d="m261 271a5.6 5.6 0 0 1 0 11z" fill="#f6a091" data-name="Path 471"/><path transform="translate(-165 -228)" d="m248 279a8.5 8.5 0 1 1-8.5-8.5 8.5 8.5 0 0 1 8.5 8.5z" fill="#fbad8b" data-name="Path 468"/><path transform="translate(-163 -226)" d="m238 271a5.6 5.6 0 0 0 0 11z" fill="#f6a091" data-name="Path 470"/><g transform="translate(-148 -195)" fill="#fbad8b" data-name="Path 463"><path d="m254 289c-2.7 0-5.3-0.34-7.2-0.95-1.1-0.33-2-0.75-2.6-1.2-1.3-0.93-1.6-2-1.6-2.7l-0.22-9c-0.014-0.58 0.2-1.1 0.62-1.6 0.71-0.73 1.8-0.89 2.6-0.89l16-0.039h0.013c0.54 0 1.1 0.071 1.5 0.21 1.3 0.4 1.8 1.4 1.8 2.1l0.22 9c0.014 0.59-0.14 1.5-0.98 2.3-0.86 0.88-2.3 1.6-4.3 2-1.8 0.42-3.9 0.65-6.1 0.65z"/><path d="m254 287c0.023 0 0.048-3e-5 0.071-9e-5 5.2-0.013 9.4-1.3 9.3-3l-0.22-9c-4e-3 -0.22-0.57-0.39-1.3-0.39h-8e-3l-16 0.039c-0.7 1e-3 -1.3 0.18-1.3 0.4l0.22 9c0.04 1.6 4.2 2.9 9.4 2.9m0 4c-2.9 0-5.7-0.37-7.8-1-1.3-0.4-2.4-0.91-3.2-1.5-2-1.5-2.4-3.3-2.4-4.3l-0.22-9c-0.029-1.1 0.39-2.2 1.2-3 1.2-1.2 2.9-1.5 4.1-1.5l16-0.039h0.018c0.74 0 1.5 0.1 2.1 0.3 0.54 0.17 1 0.41 1.4 0.72 1.1 0.79 1.7 2 1.7 3.3l0.22 9c0.032 1.4-0.52 2.7-1.5 3.8-2.9 3-9.2 3.3-12 3.3z" fill="#fff"/></g><path transform="translate(-148 -222)" d="m263 304-0.21-28a1.3 1.3 0 0 0-1.3-1.3l-16 0.12a1.3 1.3 0 0 0-1.3 1.3l0.21 28a30 30 0 0 0 19-0.2z" fill="#f6a091" data-name="Path 464"/><path transform="translate(-160 -248)" d="m295 287v-3.1a30 30 0 0 0-30-30 30 30 0 0 0-30 30v12a11 11 0 0 0 0.27 2.4 31 31 0 1 0 60-12z" fill="#fbad8b" data-name="Path 465"/><path transform="translate(-151 -227)" d="m247 273a2.3 2.3 0 1 1-2.3-2.3 2.3 2.3 0 0 1 2.3 2.3z" fill="#404040" data-name="Path 466"/><path transform="translate(-139 -227)" d="m256 273a2.3 2.3 0 1 1-2.3-2.3 2.3 2.3 0 0 1 2.3 2.3z" fill="#404040" data-name="Path 467"/><path transform="translate(-188 -209)" d="m214 356a7.2 7.2 0 0 1-0.99-5.7c4.4-17 36-58 37-60 3.3-4.9 13-4.9 13-4.9l1.2 28-27 36c-1.8 2.2 28 42 28 42l-19 11z" fill="#53af65" data-name="Path 472"/><path transform="translate(-126 -209)" d="m308 355a7.5 7.5 0 0 0 0.9-5.2c-3.4-17-31-58-33-60-3.2-4.9-13-5.4-13-5.4l-1.3 29 24 32a7.8 7.8 0 0 1 1 7.5l-18 46 12 3.3z" fill="#53af65" data-name="Path 473"/><g transform="translate(0 185)" data-name="Group 207"><path transform="translate(-202 -333)" d="m311 334c-29-0.91-58-1.1-87-0.61-4.2 0.072-8.5 0.17-12 1.5s-7.7 4-9.3 7.9c-1.7 4.1-0.58 9 2 13s6.4 6.2 10 8.1c10 4.7 21 5.9 32 6.8 23 1.7 46 2.3 69 1.6z" fill="#313131" data-name="Path 474"/></g><g transform="translate(83 185)" data-name="Group 208"><path transform="translate(-232 -333)" d="m253 334c29-0.91 58-1.1 87-0.61 4.2 0.072 8.5 0.17 12 1.5s7.7 4 9.3 7.9c1.7 4.1 0.58 9-2 13s-6.4 6.2-10 8.1c-10 4.7-21 5.9-32 6.8-23 1.7-46 2.3-69 1.6z" fill="#313131" data-name="Path 475"/></g><path transform="translate(-172 -150)" d="m245 341a9.8 9.8 0 1 1-9.8-9.8 9.8 9.8 0 0 1 9.8 9.8z" fill="#f6a091" data-name="Path 477"/><path transform="translate(-124 -150)" d="m283 343a9.8 9.8 0 1 0-10 9.2 9.8 9.8 0 0 0 10-9.2z" fill="#f6a091" data-name="Path 478"/><g transform="translate(43 156)" data-name="Group 209"><path transform="translate(-221 -319)" d="m240 369h89a7.3 7.3 0 0 0 7.1-5.6l7.5-32a10 10 0 0 0-10-12l-102 0.77a10 10 0 0 0-9.8 12l11 32a7.3 7.3 0 0 0 6.8 4.8z" fill="#fff" data-name="Path 479"/><path transform="translate(-190 -305)" d="m258 335a7 7 0 1 1-7-6.5 6.7 6.7 0 0 1 7 6.5z" fill="#bebebe" data-name="Path 480"/></g><path transform="translate(-149 -217)" d="m244 278h20s-2.7 7.6-10 7.6-9.3-7.6-9.3-7.6z" fill="#fff" data-name="Path 482"/><g fill="#5e401f"><path transform="translate(-158 -251)" d="m281 268c0.57 14-31 21-44 17-2.7-0.78 0.16-10-1.9-12-1.9-1.8 4.7-18 22-22 5.8-1.3 12 1.1 17 3.9 2.4 1.3 4.8 2.8 6.2 5.2a8.2 8.2 0 0 1 0.27 7.3z" data-name="Path 483"/><path transform="translate(-161 -243)" d="m244 275c-1.6 4.4-4.4 17-8.7 19-2.6-7.6-2.1-25 2-32a9.6 9.6 0 0 1 2.6-3 4.2 4.2 0 0 1 3.8-0.67c4.4 1.6 1.5 14 0.34 17z" data-name="Path 484"/><path transform="translate(-135 -246)" d="m270 296c2.7-6.9 2.3-21 0-28-1.8-5.5-5.6-11-11-12a3.1 3.1 0 0 0-1.4-0.1 2.3 2.3 0 0 0-1.6 2.4c0.059 1.3 1.1 1.9 1.6 2.9 0.55 1.3 0.29 6.6 1.5 9.5 1.2 2.8 5 9 6.4 12 0.59 1.1 5.3 13 4.9 14z" data-name="Path 485"/></g><g transform="translate(-73 -265)" data-name="Group 367"><g transform="translate(214 269)" data-name="Group 212"><rect transform="rotate(.8 .26 37)" width="3.7" height="37" fill="#535353" data-name="Rectangle 1247"/></g><g transform="translate(150 252)" fill="#3b3b3b" data-name="Group 213"><path transform="translate(-154 -243)" d="m210 277-1.4 0.21c-17 2.5-36-9e-3 -49-6.8l-1.1-0.57 8.8-23 52 7.1z" data-name="Path 488"/><path transform="translate(-156 -245)" d="m182 282c-8.7-1.5-15-6.3-22-10l-1.1-0.61c-1.3-0.74-1.8-1.9-1.4-2.9l7.8-21c0.67-1.6 3.2-2.5 5.6-2.1l49 8.6c2.4 0.43 3.9 2 3.2 3.6l-9.8 23a4.3 4.3 0 0 1-3.5 2.1l-1.4 0.18a91 91 0 0 1-27-0.58zm-16-11c11 5.8 26 8 41 6l6.8-19-41-6z" data-name="Path 489"/></g><g transform="translate(152 241)" fill="#464646" data-name="Group 214"><path transform="translate(-150 -238)" d="m192 242-39 4.4 31 23 39-4.4z" data-name="Path 490"/><path transform="translate(-152 -240)" d="m185 274a3.4 3.4 0 0 1-1.2-0.56l-31-23a3.4 3.4 0 0 1 1.7-6.1l39-4.4a3.4 3.4 0 0 1 2.4 0.66l31 23a3.4 3.4 0 0 1-1.7 6.1l-39 4.4a3.4 3.4 0 0 1-1.3-0.098zm-21-24 23 17 29-3.3-23-17z" data-name="Path 491"/></g></g></g></svg>
