<?xml version="1.0" encoding="UTF-8"?>
<svg width="218" height="390" version="1.1" viewBox="0 0 218 390" xmlns="http://www.w3.org/2000/svg"><defs><linearGradient id="linear-gradient" x1="365" x2="439" y1="346" y2="346" gradientTransform="scale(.99 1)" gradientUnits="userSpaceOnUse"><stop stop-color="#d4d4d4" stop-opacity="0" offset="0"/><stop stop-color="#d3d3d3" stop-opacity=".5" offset="1"/></linearGradient></defs><g transform="translate(-532 .11)" data-name="Group 242"><g transform="translate(553 16)" data-name="Group 232"><path transform="translate(-264 -81)" d="m349 403-0.11 15s1.9 9.5 3.4 20 1.5 13 0 16c-3 5-14 2-15-3s3.2-30 3.2-30l-1-20z" fill="#949494" data-name="Path 442"/><path transform="translate(-253 -81)" d="m353 400-2.3 13s-4 32-1.5 37 16 0.17 15-7.3-4.5-27-4.5-27l4.5-16z" fill="#949494" data-name="Path 443"/><g transform="translate(21)" data-name="Group 204"><path transform="translate(-314 -171)" d="m388 328-1.1 16 42 20a18 18 0 0 1 8.8 21l-29 109-14-4.6 13-100a11 11 0 0 0-9.5-13l-15-2.4-16-16 19 17a18 18 0 0 1 5.9 16l-12 101-13 3.3-5.9-99a15 15 0 0 0-11-14l-26-8.3a14 14 0 0 1-6.8-12l1.1-35z" fill="#313131" data-name="Path 444"/><path transform="translate(-315 -227)" d="m315 421 7-136s29-1.7 37-1.7c4.7 0 13 2.2 19 4.2 5.9 1.9 11 1.7 14 7.2l47 91-29 2.8-9.7-11 4.9-7.5-18-42 3.5 76z" fill="#0089c3" data-name="Path 445"/><path transform="translate(-275 -211)" d="m348 296 31 57-9.8 11a17 17 0 0 1-7.7-0.43l-1.7-2 4.9-7.5-18-42z" fill="#0a7eaf" data-name="Path 446"/><path transform="translate(-305 -227)" d="m351 324c-9.5 0-27-25-27-34a17 17 0 0 1 0.92-5.5c8.9-0.48 20-1 25-1a39 39 0 0 1 7.9 1.1 17 17 0 0 1 0.87 5.4c0 9.5 2 34-7.5 34z" fill="#fff" data-name="Path 447"/><path transform="translate(-315 -213)" d="m319 295-3.6 113 47-11z" fill="#0a7eaf" data-name="Path 448"/><path transform="translate(-300 -239)" d="m348 282c-0.81 1.6-6.5 24-6.5 24a7.2 7.2 0 0 1-6.9 3.2c-4.9-0.4-6.9-7.3-6.9-7.3l8.5-28z" fill="#f6a091" data-name="Path 449"/><path transform="translate(-306 -258)" d="m323 287c0 15 16 32 32 32s24-17 24-32a28 28 0 1 0-56 0z" fill="#f6a091" data-name="Path 450"/><ellipse transform="translate(14)" cx="31" cy="31" rx="31" ry="31" fill="#fbad8b" data-name="Ellipse 49"/><path transform="translate(-279 -232)" d="m345 280c-0.62 1.1-0.53 2.3 0.21 2.7s1.8-0.1 2.5-1.2 0.52-2.3-0.22-2.7-1.8 0.098-2.5 1.2z" fill="#3c3c3c" data-name="Path 451"/><path transform="translate(-288 -231)" d="m338 281c-0.68 1.2-0.58 2.5 0.24 3s2-0.11 2.7-1.3 0.58-2.5-0.24-3-2 0.12-2.7 1.3z" fill="#3c3c3c" data-name="Path 452"/></g><path transform="translate(-273 -161)" d="m334 342c1.2-0.41 11-5.4 19-5.4s16 7.7 16 7.7 1.2 4-3.6 3.2 0.67 3.1 0.67 3.1-0.26 0.18-5.9 0.99-28-0.38-28-0.38z" fill="#fbad8b" data-name="Path 453"/><path transform="translate(-306 -226)" d="m335 284-4.5 89 37 33-1.7 9.3-52-28a14 14 0 0 1-7-14l9.4-68a25 25 0 0 1 14-20z" fill="#0089c3" data-name="Path 454"/><path transform="translate(-287 -258)" d="m353 258c16 0 41 18 36 32s-38-3-41-10c0.24 3.5-4 13-6.7 16-0.2-2.4-0.43-5-1.7-7s-3.9-3.5-6.2-2.7a5.1 5.1 0 0 0-2.9 4.1 10 10 0 0 0 0.84 5.1 22 22 0 0 0 4.3 6.9 46 46 0 0 1-11 0.66 31 31 0 0 1 28-45z" fill="#646464" data-name="Path 459"/><g fill="#fbad8b"><path transform="translate(-284 -243)" d="m324 280a9.5 9.5 0 1 0 9.5-9.5 9.5 9.5 0 0 0-9.5 9.5z" data-name="Path 460"/><path transform="translate(-251 -81)" d="m352 400-1.7 9.9 9.9 3.1 2.8-9.8z" data-name="Path 461"/><path transform="translate(-264 -79)" d="m349 412-8.2 1.6-0.52-10 8.8-2.2z" data-name="Path 462"/></g><g transform="translate(-360 80)" data-name="Group 228"><path transform="translate(-3 -16)" d="m379 91h-35l6.3 51h23z" fill="#2e5a72" data-name="Path 508"/><path transform="translate(-7.3 -23)" d="m350 100 5.8 47h1.7v-47z" fill="#fff" opacity=".1" data-name="Path 509"/><path transform="translate(-4.9 -48)" d="m380 136h-34l2.9 23h28z" fill="#53af65" data-name="Path 510"/><path transform="translate(0 -9.2)" d="m378 85h-38l1.3-4.2h36z" fill="#f2ba49" data-name="Path 511"/><path transform="translate(-9.9 1)" d="m383 71h-29l0.99-4.2h27z" fill="#ffd34d" data-name="Path 512"/></g></g><g transform="translate(606 136)" data-name="Group 205"><path transform="translate(-330 -272)" d="m333 350h94v-6.9h-94a3.4 3.4 0 0 0-3.4 3.4 3.4 3.4 0 0 0 3.4 3.4z" fill="#cfcfcf" data-name="Path 455"/><path transform="translate(-314 -312)" d="m343 389h90a8.8 8.8 0 0 0 8.5-6.5l16-60a8.8 8.8 0 0 0-8.5-11h-79a8.8 8.8 0 0 0-8.5 6.5z" fill="#fff" data-name="Path 456"/><path transform="translate(-291 -312)" d="m426 312a8.8 8.8 0 0 1 8.5 11l-16 60a8.8 8.8 0 0 1-3 4.6l-55-76z" fill="url(#linear-gradient)" opacity=".77" data-name="Path 457"/><path transform="translate(-284 -291)" d="m366 335a5.4 5.4 0 0 0 5.5 7.1 9.8 9.8 0 0 0 9.1-7.1 5.4 5.4 0 0 0-5.5-7.1 9.8 9.8 0 0 0-9.1 7.1z" fill="#bebebe" data-name="Path 458"/></g></g></svg>
